# xmcd
#
# Track frame offsets:
#	150
#	14982
#	23582
#	34610
#	50177
#	65765
#	80357
#	104022
#	120080
#	132060
#	151442
#	167247
#	183305
#	199262
#	216802
#
# Disc length: 3191 seconds
#
# Revision: 0
# Processed by: cddbd v1.5.1PL0 Copyright (c) Steve Scherf et al.
# Submitted via: dBpowerAMP V4.0
#
DISCID=d20c750f
DTITLE=Riley'BB'King,Indianola,MS - TheBluesCollection;UpbeatMusic,CMC10033-2
DYEAR=1996
DGENRE=Blues
TTITLE0=BBBoogie(King;Riley'BB'King,Indianola,MS)
TTITLE1=NowWayOfDriving,A(King;Riley'BB'King,Indianola,MS)
TTITLE2=CatfishBlues(King;Riley'BB'King,Indianola,MS)
TTITLE3=Walkin'AndCryin'(King;Riley'BB'King,Indianola,MS)
TTITLE4=HowBlueCanYouGet(MLondon;Riley'BB'King,Indianola,MS)
TTITLE5=MisterPawnbroker(King;Riley'BB'King,Indianola,MS)
TTITLE6=You'veDoneLostYourGoodThingNow(King;Riley'BB'King,Indianola,MS)
TTITLE7=It'sMyOwnFault,Baby(King;Riley'BB'King,Indianola,MS)
TTITLE8=PayingTheCostToBeTheBoss(King;Riley'BB'King,Indianola,MS)
TTITLE9=SweetSixteen(Nugetre;Riley'BB'King,Indianola,MS)
TTITLE10=Letter,The(King,Josla;Riley'BB'King,Indianola,MS)
TTITLE11=OtherNightBlues,The(King;Riley'BB'King,Indianola,MS)
TTITLE12=LongNights(King,Josla;Riley'BB'King,Indianola,MS)
TTITLE13=EvilChild(King;Riley'BB'King,Indianola,MS)
TTITLE14=EverydayIHaveTheBlues(MemphisSlim;Riley'BB'King,Indianola,MS)
EXTD=more info - MillenniumMusicProjectFormat - SYNTAX=SongTitle{Subtitle}[miscInfo](Lyricist;Composer;Date,Artist,Location,State,Country)
EXTT0=
EXTT1=
EXTT2=
EXTT3=
EXTT4=
EXTT5=
EXTT6=
EXTT7=
EXTT8=
EXTT9=
EXTT10=
EXTT11=
EXTT12=
EXTT13=
EXTT14=
PLAYORDER=
